<svg xmlns="http://www.w3.org/2000/svg" width="512" height="512" viewBox="0 0 512 512" version="1.1"><path d="M 337 0.881 C 327.395 4.036, 325.572 5.791, 165.339 166.182 C 35.075 296.573, 5.662 326.499, 3.339 331 C 0.750 336.016, 0.500 337.424, 0.500 347 C 0.500 364.800, -4.150 359.096, 74.377 437.623 C 152.904 516.150, 147.200 511.500, 165 511.500 C 174.527 511.500, 176.010 511.240, 181 508.698 C 185.543 506.383, 214.292 478.112, 346.205 346.244 C 527.531 164.979, 511.500 182.605, 511.500 164.500 C 511.500 147.072, 516.055 152.640, 437.707 74.293 C 360.174 -3.240, 365.071 0.820, 348.500 0.328 C 343.550 0.180, 338.375 0.430, 337 0.881 M 337.500 16.920 C 334.805 18.184, 315.559 36.772, 278.508 73.893 L 223.516 128.990 237.834 143.333 C 251.126 156.649, 252.128 157.913, 251.825 160.989 C 251.411 165.209, 247.326 168.544, 243.870 167.484 C 242.567 167.084, 235.190 160.520, 227.477 152.898 L 213.454 139.039 158.323 194.270 C 128.001 224.646, 102.438 251.009, 101.517 252.854 C 99.464 256.962, 99.194 265.129, 100.933 270.500 C 101.995 273.779, 114.240 286.537, 168.864 341.276 C 214.941 387.450, 236.800 408.684, 239.713 410.098 C 244.862 412.597, 253.157 412.789, 258.611 410.537 C 261.410 409.381, 277.991 393.450, 317.746 353.723 L 372.992 298.515 316.496 241.987 C 262.914 188.375, 260 185.275, 260 181.884 C 260 177.352, 262.682 174.742, 266.890 175.180 C 269.458 175.447, 279.316 184.836, 326.514 231.966 L 383.062 288.431 438.052 233.466 C 474.327 197.206, 493.715 177.116, 495.021 174.434 C 497.630 169.075, 497.590 160.905, 494.926 155 C 492.254 149.076, 366.162 22.387, 358.500 17.929 C 352.357 14.354, 343.843 13.945, 337.500 16.920 M 77.766 274.750 C 74.092 278.462, 70.391 283.173, 69.543 285.218 C 67.311 290.596, 67.561 299.198, 70.097 304.290 C 73.325 310.772, 202.057 439.260, 208 441.933 C 213.433 444.376, 221.609 444.604, 226.782 442.457 C 230.110 441.076, 244 428.527, 244 426.902 C 244 426.543, 242.683 425.987, 241.074 425.665 C 231.741 423.798, 230.393 422.581, 160.709 353.097 C 98.603 291.168, 92.628 284.923, 89.459 278.616 C 87.557 274.829, 86 270.892, 86 269.866 C 86 268.840, 85.650 268, 85.223 268 C 84.796 268, 81.440 271.038, 77.766 274.750 M 51.802 300.721 C 46.279 307.017, 44.911 318.173, 48.763 325.500 C 51.422 330.558, 182.133 461.117, 187 463.577 C 191.971 466.090, 201.356 465.930, 206.567 463.243 C 211.470 460.715, 214.107 458, 211.660 458 C 210.788 458, 207.471 457.048, 204.288 455.883 C 198.800 453.876, 194.938 450.213, 129.700 385.133 C 91.860 347.385, 59.962 314.999, 58.815 313.164 C 57.668 311.329, 55.972 307.378, 55.046 304.385 C 53.476 299.310, 53.257 299.062, 51.802 300.721 M 24.766 327.750 C 21.092 331.462, 17.391 336.173, 16.543 338.218 C 14.311 343.597, 14.561 352.199, 17.098 357.290 C 19.995 363.105, 146.575 490.034, 153.500 494.068 C 159.334 497.467, 167.579 498.031, 173.782 495.457 C 177.110 494.076, 191 481.527, 191 479.902 C 191 479.543, 189.548 478.960, 187.774 478.605 C 178.787 476.807, 176.772 474.985, 108.210 406.608 C 71.200 369.699, 39.615 337.475, 38.020 335 C 36.425 332.525, 34.550 328.363, 33.853 325.750 C 33.156 323.137, 32.329 321, 32.016 321 C 31.703 321, 28.440 324.038, 24.766 327.750" stroke="none" fill="#000000" fill-rule="evenodd"/><path d="M 158.823 194.770 C 128.776 224.871, 103.380 251.075, 102.388 253 C 99.531 258.543, 99.888 267.462, 103.190 273 C 104.692 275.520, 134.058 305.656, 169.937 341.498 L 234.002 405.496 295.244 344.254 L 356.485 283.013 307.743 234.233 C 261.857 188.312, 259 185.246, 259 181.926 C 259 179.987, 259.446 177.954, 259.992 177.408 C 260.648 176.752, 259.164 174.619, 255.612 171.110 C 252.317 167.856, 249.977 166.229, 249.560 166.902 C 249.187 167.506, 247.256 168, 245.268 168 C 241.962 168, 240.457 166.813, 227.554 154.020 L 213.454 140.039 158.823 194.770 M 212.481 427.061 L 202.500 437.121 205.472 439.525 C 207.107 440.848, 210.579 442.387, 213.187 442.947 C 222.028 444.843, 228.469 442.243, 237.355 433.193 L 243.209 427.230 238.067 425.522 C 235.239 424.583, 230.647 422.281, 227.862 420.407 C 225.077 418.533, 222.723 417, 222.631 417 C 222.538 417, 217.971 421.527, 212.481 427.061 M 165.645 473.852 C 160.747 478.868, 154.042 482.149, 147.163 482.899 L 141.640 483.500 147.070 488.394 C 153.796 494.457, 157.939 496.284, 165 496.303 C 172.126 496.321, 176.830 493.857, 184.410 486.137 L 190.320 480.118 187.410 479.417 C 183.570 478.492, 177.271 475.350, 173.317 472.386 C 171.566 471.074, 169.970 470, 169.770 470 C 169.570 470, 167.713 471.733, 165.645 473.852" stroke="none" fill="#db3916" fill-rule="evenodd"/><path d="M 78.152 275.420 C 74.739 278.974, 71.252 283.546, 70.402 285.580 C 68.373 290.437, 68.432 298.972, 70.525 303.162 C 71.442 304.998, 101.507 335.859, 137.336 371.743 L 202.480 436.986 212.740 426.760 L 223.001 416.535 156.654 350.017 C 104.303 297.532, 89.853 282.500, 88.153 278.761 C 86.969 276.154, 85.993 273.454, 85.985 272.761 C 85.934 268.594, 84.113 269.213, 78.152 275.420 M 25.368 328.195 C 22.034 331.668, 18.517 336.034, 17.553 337.898 C 15.272 342.308, 15.243 351.599, 17.496 356.106 C 18.429 357.973, 46.935 387.288, 80.843 421.250 C 130.438 470.925, 142.997 483, 145.065 483 C 150.541 483, 157.643 479.936, 163.858 474.894 L 170.215 469.735 103.758 403.118 C 59.775 359.028, 36.721 335.218, 35.584 332.708 C 34.639 330.622, 33.318 327.333, 32.648 325.398 L 31.431 321.881 25.368 328.195" stroke="none" fill="#fc5a37" fill-rule="evenodd"/><path d="M 125.755 383.011 L 191.009 448.515 185.905 453.619 L 180.801 458.722 183.756 460.826 C 190.426 465.575, 201.038 466.088, 207.783 461.986 C 211.312 459.840, 211.985 458.006, 209.250 457.990 C 208.287 457.985, 205.025 456.837, 202 455.440 C 197.307 453.273, 186.521 442.965, 128.500 385.204 L 60.500 317.507 125.755 383.011" stroke="none" fill="#fff2d4" fill-rule="evenodd"/><path d="M 49.830 305.215 C 46.572 311.430, 46.751 320.218, 50.257 326.107 C 51.696 328.523, 81.694 359.291, 116.919 394.480 L 180.965 458.459 185.993 453.507 L 191.020 448.555 125.066 382.528 C 68.757 326.156, 58.739 315.696, 56.565 311 C 55.165 307.975, 54.015 304.739, 54.010 303.809 C 53.990 300.383, 52.015 301.048, 49.830 305.215" stroke="none" fill="#ffffff" fill-rule="evenodd"/><path d="M 158.823 194.770 C 128.776 224.871, 103.380 251.075, 102.388 253 C 99.531 258.543, 99.888 267.462, 103.190 273 C 104.692 275.520, 134.058 305.656, 169.937 341.498 L 234.002 405.496 295.244 344.254 L 356.485 283.013 307.743 234.233 C 261.857 188.312, 259 185.246, 259 181.926 C 259 179.987, 259.446 177.954, 259.992 177.408 C 260.648 176.752, 259.164 174.619, 255.612 171.110 C 252.317 167.856, 249.977 166.229, 249.560 166.902 C 249.187 167.506, 247.256 168, 245.268 168 C 241.962 168, 240.457 166.813, 227.554 154.020 L 213.454 140.039 158.823 194.770 M 212.481 427.061 L 202.500 437.121 205.472 439.525 C 207.107 440.848, 210.579 442.387, 213.187 442.947 C 222.028 444.843, 228.469 442.243, 237.355 433.193 L 243.209 427.230 238.067 425.522 C 235.239 424.583, 230.647 422.281, 227.862 420.407 C 225.077 418.533, 222.723 417, 222.631 417 C 222.538 417, 217.971 421.527, 212.481 427.061 M 165.645 473.852 C 160.747 478.868, 154.042 482.149, 147.163 482.899 L 141.640 483.500 147.070 488.394 C 153.796 494.457, 157.939 496.284, 165 496.303 C 172.126 496.321, 176.830 493.857, 184.410 486.137 L 190.320 480.118 187.410 479.417 C 183.570 478.492, 177.271 475.350, 173.317 472.386 C 171.566 471.074, 169.970 470, 169.770 470 C 169.570 470, 167.713 471.733, 165.645 473.852" stroke="none" fill="#db3916" fill-rule="evenodd"/><path d="M 78.152 275.420 C 74.739 278.974, 71.252 283.546, 70.402 285.580 C 68.373 290.437, 68.432 298.972, 70.525 303.162 C 71.442 304.998, 101.507 335.859, 137.336 371.743 L 202.480 436.986 212.740 426.760 L 223.001 416.535 156.654 350.017 C 104.303 297.532, 89.853 282.500, 88.153 278.761 C 86.969 276.154, 85.993 273.454, 85.985 272.761 C 85.934 268.594, 84.113 269.213, 78.152 275.420 M 25.368 328.195 C 22.034 331.668, 18.517 336.034, 17.553 337.898 C 15.272 342.308, 15.243 351.599, 17.496 356.106 C 18.429 357.973, 46.935 387.288, 80.843 421.250 C 130.438 470.925, 142.997 483, 145.065 483 C 150.541 483, 157.643 479.936, 163.858 474.894 L 170.215 469.735 103.758 403.118 C 59.775 359.028, 36.721 335.218, 35.584 332.708 C 34.639 330.622, 33.318 327.333, 32.648 325.398 L 31.431 321.881 25.368 328.195" stroke="none" fill="#fc5a37" fill-rule="evenodd"/><path d="M 158.497 194.250 L 104.500 248.500 158.750 194.503 C 188.588 164.805, 213 140.393, 213 140.253 C 213 139.551, 208.688 143.823, 158.497 194.250 M 226.986 153.250 C 239.514 166.023, 241 167.453, 241 166.736 C 241 166.591, 234.813 160.403, 227.250 152.986 L 213.500 139.500 226.986 153.250 M 307.997 234.250 L 356.493 283.001 295.106 344.394 L 233.720 405.786 237.751 408.454 C 240.382 410.195, 243.729 411.323, 247.383 411.700 C 258.701 412.868, 256.694 414.521, 317.250 354.146 C 347.363 324.123, 372 299.094, 372 298.526 C 372 297.958, 346.688 272.295, 315.750 241.497 C 261.922 187.911, 261.588 187.599, 307.997 234.250 M 78.469 274.250 L 72.500 280.500 78.556 274.723 C 81.887 271.546, 84.925 269.258, 85.306 269.640 C 85.688 270.021, 86 269.808, 86 269.167 C 86 266.953, 84.417 268.021, 78.469 274.250 M 159.500 353 C 196.347 389.850, 226.719 420, 226.994 420 C 227.269 420, 197.347 389.850, 160.500 353 C 123.653 316.150, 93.281 286, 93.006 286 C 92.731 286, 122.653 316.150, 159.500 353 M 25.422 327.297 L 19.500 333.500 25.633 327.648 C 29.819 323.652, 31.936 322.224, 32.304 323.148 C 32.648 324.012, 32.871 324.070, 32.921 323.309 C 33.116 320.372, 30.917 321.542, 25.422 327.297 M 104.500 404 C 140.247 439.750, 169.719 469, 169.994 469 C 170.269 469, 141.247 439.750, 105.500 404 C 69.753 368.250, 40.281 339, 40.006 339 C 39.731 339, 68.753 368.250, 104.500 404 M 241.852 426.696 C 242.776 427.064, 241.348 429.181, 237.352 433.367 L 231.500 439.500 237.703 433.578 C 243.458 428.083, 244.628 425.884, 241.691 426.079 C 240.930 426.129, 240.988 426.352, 241.852 426.696 M 188.852 479.696 C 189.776 480.064, 188.348 482.181, 184.352 486.367 L 178.500 492.500 184.703 486.578 C 190.458 481.083, 191.628 478.884, 188.691 479.079 C 187.930 479.129, 187.988 479.352, 188.852 479.696" stroke="none" fill="#a42b10" fill-rule="evenodd"/><path d="M 158.823 194.770 C 128.776 224.871, 103.380 251.075, 102.388 253 C 99.531 258.543, 99.888 267.462, 103.190 273 C 104.692 275.520, 134.058 305.656, 169.937 341.498 L 234.002 405.496 295.244 344.254 L 356.485 283.013 307.743 234.233 C 261.857 188.312, 259 185.246, 259 181.926 C 259 179.987, 259.446 177.954, 259.992 177.408 C 260.648 176.752, 259.164 174.619, 255.612 171.110 C 252.317 167.856, 249.977 166.229, 249.560 166.902 C 249.187 167.506, 247.256 168, 245.268 168 C 241.962 168, 240.457 166.813, 227.554 154.020 L 213.454 140.039 158.823 194.770 M 212.481 427.061 L 202.500 437.121 205.472 439.525 C 207.107 440.848, 210.579 442.387, 213.187 442.947 C 222.028 444.843, 228.469 442.243, 237.355 433.193 L 243.209 427.230 238.067 425.522 C 235.239 424.583, 230.647 422.281, 227.862 420.407 C 225.077 418.533, 222.723 417, 222.631 417 C 222.538 417, 217.971 421.527, 212.481 427.061 M 165.645 473.852 C 160.747 478.868, 154.042 482.149, 147.163 482.899 L 141.640 483.500 147.070 488.394 C 153.796 494.457, 157.939 496.284, 165 496.303 C 172.126 496.321, 176.830 493.857, 184.410 486.137 L 190.320 480.118 187.410 479.417 C 183.570 478.492, 177.271 475.350, 173.317 472.386 C 171.566 471.074, 169.970 470, 169.770 470 C 169.570 470, 167.713 471.733, 165.645 473.852" stroke="none" fill="#db3916" fill-rule="evenodd"/><path d="M 337 0.881 C 327.395 4.036, 325.572 5.791, 165.339 166.182 C 35.075 296.573, 5.662 326.499, 3.339 331 C 0.750 336.016, 0.500 337.424, 0.500 347 C 0.500 364.800, -4.150 359.096, 74.377 437.623 C 152.904 516.150, 147.200 511.500, 165 511.500 C 174.527 511.500, 176.010 511.240, 181 508.698 C 185.543 506.383, 214.292 478.112, 346.205 346.244 C 527.531 164.979, 511.500 182.605, 511.500 164.500 C 511.500 147.072, 516.055 152.640, 437.707 74.293 C 360.174 -3.240, 365.071 0.820, 348.500 0.328 C 343.550 0.180, 338.375 0.430, 337 0.881 M 337.500 16.920 C 334.805 18.184, 315.559 36.772, 278.508 73.893 L 223.516 128.990 237.834 143.333 C 251.126 156.649, 252.128 157.913, 251.825 160.989 C 251.411 165.209, 247.326 168.544, 243.870 167.484 C 242.567 167.084, 235.190 160.520, 227.477 152.898 L 213.454 139.039 158.323 194.270 C 128.001 224.646, 102.438 251.009, 101.517 252.854 C 99.464 256.962, 99.194 265.129, 100.933 270.500 C 101.995 273.779, 114.240 286.537, 168.864 341.276 C 214.941 387.450, 236.800 408.684, 239.713 410.098 C 244.862 412.597, 253.157 412.789, 258.611 410.537 C 261.410 409.381, 277.991 393.450, 317.746 353.723 L 372.992 298.515 316.496 241.987 C 262.914 188.375, 260 185.275, 260 181.884 C 260 177.352, 262.682 174.742, 266.890 175.180 C 269.458 175.447, 279.316 184.836, 326.514 231.966 L 383.062 288.431 438.052 233.466 C 474.327 197.206, 493.715 177.116, 495.021 174.434 C 497.630 169.075, 497.590 160.905, 494.926 155 C 492.254 149.076, 366.162 22.387, 358.500 17.929 C 352.357 14.354, 343.843 13.945, 337.500 16.920 M 77.766 274.750 C 74.092 278.462, 70.391 283.173, 69.543 285.218 C 67.311 290.596, 67.561 299.198, 70.097 304.290 C 73.325 310.772, 202.057 439.260, 208 441.933 C 213.433 444.376, 221.609 444.604, 226.782 442.457 C 230.110 441.076, 244 428.527, 244 426.902 C 244 426.543, 242.683 425.987, 241.074 425.665 C 231.741 423.798, 230.393 422.581, 160.709 353.097 C 98.603 291.168, 92.628 284.923, 89.459 278.616 C 87.557 274.829, 86 270.892, 86 269.866 C 86 268.840, 85.650 268, 85.223 268 C 84.796 268, 81.440 271.038, 77.766 274.750 M 51.802 300.721 C 46.279 307.017, 44.911 318.173, 48.763 325.500 C 51.422 330.558, 182.133 461.117, 187 463.577 C 191.971 466.090, 201.356 465.930, 206.567 463.243 C 211.470 460.715, 214.107 458, 211.660 458 C 210.788 458, 207.471 457.048, 204.288 455.883 C 198.800 453.876, 194.938 450.213, 129.700 385.133 C 91.860 347.385, 59.962 314.999, 58.815 313.164 C 57.668 311.329, 55.972 307.378, 55.046 304.385 C 53.476 299.310, 53.257 299.062, 51.802 300.721 M 24.766 327.750 C 21.092 331.462, 17.391 336.173, 16.543 338.218 C 14.311 343.597, 14.561 352.199, 17.098 357.290 C 19.995 363.105, 146.575 490.034, 153.500 494.068 C 159.334 497.467, 167.579 498.031, 173.782 495.457 C 177.110 494.076, 191 481.527, 191 479.902 C 191 479.543, 189.548 478.960, 187.774 478.605 C 178.787 476.807, 176.772 474.985, 108.210 406.608 C 71.200 369.699, 39.615 337.475, 38.020 335 C 36.425 332.525, 34.550 328.363, 33.853 325.750 C 33.156 323.137, 32.329 321, 32.016 321 C 31.703 321, 28.440 324.038, 24.766 327.750" stroke="none" fill="#000000" fill-rule="evenodd"/><path d="M 277.997 74.750 L 223.500 129.500 278.250 75.003 C 308.363 45.030, 333 20.393, 333 20.253 C 333 19.551, 328.653 23.858, 277.997 74.750 M 482.721 147.410 C 482.396 150.563, 481.010 155.048, 479.510 157.805 C 477.690 161.148, 459.878 179.637, 422.163 217.328 L 367.457 272.001 375 279.500 C 379.150 283.625, 382.994 287, 383.543 287 C 385.269 287, 492.692 178.674, 494.474 175.137 C 499.164 165.827, 496.776 155.144, 488.092 146.590 L 483.294 141.865 482.721 147.410" stroke="none" fill="#1d54bd" fill-rule="evenodd"/><path d="M 341.994 15.934 C 340.615 16.354, 338.140 17.411, 336.494 18.284 C 334.847 19.156, 308.979 44.422, 279.008 74.430 L 224.516 128.990 238.758 143.258 C 250.823 155.345, 253 157.989, 253 160.563 C 253 162.233, 252.451 164.149, 251.781 164.819 C 250.822 165.778, 251.648 167.124, 255.649 171.125 C 260.091 175.568, 260.997 176.072, 262.802 175.106 C 267.843 172.408, 267.954 172.502, 317.990 222.500 C 344.685 249.175, 366.977 271, 367.526 271 C 368.075 271, 393.112 246.363, 423.163 216.250 C 461.067 178.270, 478.479 160.144, 480.012 157.072 C 481.227 154.637, 482.435 150.137, 482.694 147.072 L 483.167 141.500 421.334 79.835 C 361.599 20.264, 359.316 18.117, 354.068 16.585 C 348.206 14.874, 345.889 14.749, 341.994 15.934 M 116.500 395 C 151.697 430.200, 180.719 459, 180.994 459 C 181.269 459, 152.697 430.200, 117.500 395 C 82.303 359.800, 53.281 331, 53.006 331 C 52.731 331, 81.303 359.800, 116.500 395" stroke="none" fill="#487ed2" fill-rule="evenodd"/><path d="M 426 84.500 C 461.472 119.975, 490.719 149, 490.994 149 C 491.269 149, 462.472 119.975, 427 84.500 C 391.528 49.025, 362.281 20, 362.006 20 C 361.731 20, 390.528 49.025, 426 84.500 M 237.500 143 C 245.185 150.700, 251.698 157, 251.973 157 C 252.248 157, 246.185 150.700, 238.500 143 C 230.815 135.300, 224.302 129, 224.027 129 C 223.752 129, 229.815 135.300, 237.500 143 M 319.500 225 C 346.996 252.500, 369.717 275, 369.992 275 C 370.267 275, 347.996 252.500, 320.500 225 C 293.004 197.500, 270.283 175, 270.008 175 C 269.733 175, 292.004 197.500, 319.500 225 M 169.500 342 C 205.797 378.300, 235.719 408, 235.994 408 C 236.269 408, 206.797 378.300, 170.500 342 C 134.203 305.700, 104.281 276, 104.006 276 C 103.731 276, 133.203 305.700, 169.500 342 M 380.220 285.533 C 381.716 287.106, 383.119 288.193, 383.338 287.947 C 383.557 287.701, 382.333 286.414, 380.618 285.086 L 377.500 282.672 380.220 285.533 M 137.500 374 C 172.697 409.200, 201.719 438, 201.994 438 C 202.269 438, 173.697 409.200, 138.500 374 C 103.303 338.800, 74.281 310, 74.006 310 C 73.731 310, 102.303 338.800, 137.500 374 M 127.500 384 C 164.347 420.850, 194.719 451, 194.994 451 C 195.269 451, 165.347 420.850, 128.500 384 C 91.653 347.150, 61.281 317, 61.006 317 C 60.731 317, 90.653 347.150, 127.500 384 M 84.500 427 C 120.247 462.750, 149.719 492, 149.994 492 C 150.269 492, 121.247 462.750, 85.500 427 C 49.753 391.250, 20.281 362, 20.006 362 C 19.731 362, 48.753 391.250, 84.500 427" stroke="none" fill="#171018" fill-rule="evenodd"/><path d="M 137.500 373 C 172.697 408.200, 201.719 437, 201.994 437 C 202.269 437, 173.697 408.200, 138.500 373 C 103.303 337.800, 74.281 309, 74.006 309 C 73.731 309, 102.303 337.800, 137.500 373 M 80.500 422 C 114.047 455.550, 141.719 483, 141.994 483 C 142.269 483, 115.047 455.550, 81.500 422 C 47.953 388.450, 20.281 361, 20.006 361 C 19.731 361, 46.953 388.450, 80.500 422" stroke="none" fill="#e44f29" fill-rule="evenodd"/></svg>