<svg xmlns="http://www.w3.org/2000/svg" shape-rendering="geometricPrecision" text-rendering="geometricPrecision" image-rendering="optimizeQuality" fill-rule="evenodd" clip-rule="evenodd" viewBox="0 0 564 470.605">
    <path fill="#333" fill-rule="nonzero" d="M344.323 189.398c-185.654-509.961 164.288 451.303 0 0zM.006 274.208c-.296-26.257 9.654-49.868 32.868-59.155.862-1.3 1.707-2.308 3.211-3.568 2.682-2.25 5.117-2.917 8.271-4.119 111.299-40.944 154.013-104.741 178.306-141.025 7.092-10.592 12.749-19.04 18.586-24.867 3.238-3.233 5.784-5.311 9.611-6.748 3.955-1.486 7.636-1.621 12.763-.797 11.258 1.807 22.804 9.317 34.09 21.008 24.993 25.89 51.345 74.957 69.931 126.007 18.674 51.3 29.726 105.327 24.013 140.899-2.355 14.671-7.549 26.712-16.147 35.01l-.013-.013c-.499.479-1.046.923-1.638 1.325-5.906 4.013-11.477 5.573-17.242 5.793-4.982.191-9.346-.656-14.195-1.663-8.73-1.815-17.087-4.198-26.095-6.766-29.331-8.361-65.922-18.786-124.062-11.965-1.159 3.852-2.009 7.966-2.045 11.639-.023 2.442.223 4.379.936 5.031l.982.895c5.441 4.95 8.122 7.382 9.728 13.387 1.254 4.696.73 8.742-.301 16.706l-.345 2.681c-.581 4.569 1.766 5.571 4.109 6.57 6.868 2.929 13.735 5.856 17.459 15.799a12.37 12.37 0 01.836 7.345c-2.984 15.325-12.029 23.102-21.069 30.876-1.777 1.528-3.558 3.059-5.146 4.563l-.021-.022c-.257.243-.525.478-.805.703-21.558 17.238-36.55 12.102-48.148-2.403-7.394-9.246-12.077-22.156-16.448-34.207l-1.798-4.881c-6.24-16.889-10.921-37.082-15.653-58.101l-1.191.367a667.431 667.431 0 00-14.308 4.417c-.469.151-.712.248-.911.327-4.252 1.691-6.384 2.536-9.811 1.308-28.317 7.271-51.861-6.526-67.678-28.657-6.456-9.035-11.564-19.52-15.078-30.444C2.064 296.596.131 285.176.006 274.208z"/>
    <path fill="#EDECF1" d="M41.141 225.308c-58.58 17.233-20.206 151.415 48.412 127.938 2.642 1.651 2.605.873 5.693-.123a640.23 640.23 0 0128.504-8.49c5.681 25.047 10.835 49.679 18.098 69.338 9.267 25.077 18.918 58.561 47.009 36.098 8.861-8.391 19.86-14.858 22.571-28.784-4.509-13.529-25.473-5.551-22.5-28.937 2.06-16.195 2.513-15.039-6.13-22.932-8.752-7.993-4.192-26.164.368-37.2 30.512-4.222 55.463-3.969 76.625-1.584-26.803-30.317-45.78-62.409-57.511-95.876-11.772-33.59-16.21-68.415-13.907-104.087-29.166 30.577-72.25 63.528-139.742 88.357-5.491 2.021-4.36 1.286-7.49 6.282z"/>
    <path fill="#333" fill-rule="nonzero" d="M307.384 353.208c-7.305-2.011-32.968-6.918-37.678-11.815-32.094-33.45-54.299-69.183-67.426-106.637-13.649-38.95-17.442-79.56-12.292-121.227.01.001 2.182-5.626 2.526-6.073 8.179-10.61 16.361-22.303 23.8-32.933 10.112-14.453 18.934-27.06 24.934-33.049 3.238-3.233 5.784-5.311 9.611-6.748 3.955-1.486 7.636-1.621 12.763-.797 11.258 1.807 22.804 9.317 34.09 21.008 24.993 25.89 51.345 74.957 69.931 126.007 18.674 51.3 29.726 105.327 24.013 140.899-2.355 14.671-7.549 26.712-16.147 35.01l-.013-.013c-.499.479-1.046.923-1.638 1.325-5.907 4.015-11.479 5.571-17.242 5.791-4.985.192-9.346-.655-14.195-1.661-8.289-1.723-21.489-5.358-35.037-9.087z"/>
    <path fill="#FD6974" d="M278.645 332.794c12.561 2.98 29.835 7.917 44.655 11.928-30.325-30.381-55.091-77.058-71.837-124.843-17.875-51.006-26.663-104.043-23.415-140.522-8.014 11.446-16.969 24.326-25.72 35.678-9.678 78.292 13.551 152.34 76.317 217.759z"/>
    <path fill="#DBD9E5" d="M123.627 344.536c4.723 20.995 12.075 52.801 18.221 69.435 9.265 25.077 18.918 58.561 47.009 36.098 8.861-8.391 19.86-14.858 22.571-28.784-4.509-13.529-25.473-5.551-22.5-28.937 2.06-16.195 2.513-15.039-6.13-22.932-8.426-7.696-4.512-24.825-.14-35.939 11.438-5.612 42.498-6.159 76.696-2.751-21.493-24.321-37.738-47.042-52.252-82.478-32.723 28.704-50.752 67.583-83.475 96.288z"/>    
<g>
<path style="stroke: rgb(0,0,0); stroke-width: 0; stroke-dasharray: none; stroke-linecap: butt; stroke-dashoffset: 0; stroke-linejoin: miter; stroke-miterlimit: 4; fill: rgb(0,0,0); fill-rule: nonzero; opacity: 1;" vector-effect="non-scaling-stroke"  transform="rotate(-20) translate(320, 250)" d="M 90.914 5.296 C 97.84100000000001 -1.7379999999999995 109.102 -1.7690000000000001 116.068 5.228000000000001 C 123.029 12.223 123.059 23.597 116.136 30.625 L 85.743 61.452 L 116.16799999999999 92.307 C 123.03399999999999 99.285 122.94099999999999 110.587 115.96 117.554 C 108.97699999999999 124.518 97.75 124.5 90.886 117.523 L 60.669 86.881 L 30.395 117.58 C 23.468 124.614 12.207 124.645 5.241 117.648 C -1.7200000000000006 110.65299999999999 -1.7510000000000003 99.279 5.173 92.251 L 35.566 61.42400000000001 L 5.142 30.568 C -1.7249999999999996 23.590000000000003 -1.6309999999999993 12.288 5.3500000000000005 5.3210000000000015 C 12.333 -1.6419999999999986 23.560000000000002 -1.6249999999999982 30.424000000000003 5.352000000000001 L 60.641000000000005 35.995000000000005 L 90.914 5.296 L 90.914 5.296 z" stroke-linecap="round" />
</g>
    <path fill="#fff" d="M246.374 54.901c12.707-30.515 58.216 17.306 91.101 84.993 44.828 92.271 71.882 218.986 12.84 211.601C270 295.205 220.643 108.066 246.374 54.901z"/>
    <path fill="#EDECF1" d="M344.966 156.013c40.143 90.193 61.02 202.445 5.349 195.482-25.055-17.559-47.095-47.854-64.784-82.841-32.261-73.557-45.799-160.022-29.611-193.468 12.445-29.886 56.349 15.366 89.046 80.827z"/>
    <path fill="#333" d="M313.581 222.046c0 19.45-23.747 58.467-31.771 41.772-12.338-25.673-22.371-52.209-28.72-80.613-2.026-9.109 60.491-7.901 60.491 38.841z"/>
</svg>