<svg xmlns="http://www.w3.org/2000/svg" width="512" height="512" viewBox="0 0 512 512" version="1.1"><path d="M 416.227 138.272 L 405.994 148.541 413.767 156.268 L 421.540 163.996 431.773 153.728 L 442.006 143.459 434.233 135.732 L 426.460 128.004 416.227 138.272" stroke="none" fill="#dff5ff" fill-rule="evenodd"/><path d="M 398 39.500 C 387.286 50.225, 378.744 59, 379.019 59 C 379.294 59, 388.286 50.225, 399 39.500 C 409.714 28.775, 418.256 20, 417.981 20 C 417.706 20, 408.714 28.775, 398 39.500 M 482.732 62.312 C 481.788 71.456, 479.054 75.213, 457.666 96.754 L 437.556 117.009 445.511 125.011 L 453.467 133.014 472.300 114.257 C 494.335 92.311, 496.500 89.246, 496.500 80 C 496.500 72.517, 493.941 67.188, 487.228 60.690 L 483.292 56.879 482.732 62.312" stroke="none" fill="#ff3187" fill-rule="evenodd"/><path d="M 80.500 389 C 89.287 397.800, 96.702 405, 96.977 405 C 97.252 405, 90.287 397.800, 81.500 389 C 72.713 380.200, 65.298 373, 65.023 373 C 64.748 373, 71.713 380.200, 80.500 389 M 90.981 420.750 C 109.966 439.863, 125.705 455.370, 125.956 455.211 C 126.464 454.889, 57.815 386, 56.986 386 C 56.698 386, 71.995 401.637, 90.981 420.750 M 122.500 431 C 131.287 439.800, 138.702 447, 138.977 447 C 139.252 447, 132.287 439.800, 123.500 431 C 114.713 422.200, 107.298 415, 107.023 415 C 106.748 415, 113.713 422.200, 122.500 431 M 32 445.973 C 32 446.814, 65.887 480.469, 66.214 479.953 C 66.371 479.704, 58.737 471.833, 49.250 462.462 C 39.763 453.091, 32 445.671, 32 445.973 M 25.149 463.750 C 22.754 468.297, 15 488.305, 15 489.937 C 15 490.950, 15.840 492.816, 16.867 494.084 L 18.733 496.389 31.939 488.536 L 45.145 480.684 35.842 471.342 C 30.726 466.204, 26.434 462, 26.305 462 C 26.176 462, 25.656 462.788, 25.149 463.750" stroke="none" fill="#2d3e53" fill-rule="evenodd"/><path d="M 405 106.500 C 425.069 126.575, 441.715 143, 441.990 143 C 442.265 143, 426.069 126.575, 406 106.500 C 385.931 86.425, 369.285 70, 369.010 70 C 368.735 70, 384.931 86.425, 405 106.500 M 200.497 237.251 L 64.500 373.500 200.507 237.745 L 336.513 101.989 351.999 117.499 L 367.485 133.009 304.493 196.255 L 241.502 259.500 304.999 196.251 L 368.495 133.003 352.495 117.003 L 336.495 101.002 200.497 237.251 M 315.497 207.250 L 252.500 270.500 315.747 207.506 L 378.995 144.511 386.743 152.259 L 394.491 160.007 259.008 295.492 L 123.525 430.978 131.500 439 L 139.475 447.022 274.738 311.762 C 349.132 237.370, 410 176.047, 410 175.489 C 410 174.500, 379.959 144, 378.985 144 C 378.715 144, 350.145 172.462, 315.497 207.250 M 159.497 341.250 L 96.500 404.500 159.750 341.503 C 194.538 306.855, 223 278.392, 223 278.253 C 223 277.551, 218.057 282.455, 159.497 341.250 M 170.497 352.250 L 107.500 415.500 170.750 352.503 C 205.538 317.855, 234 289.392, 234 289.253 C 234 288.551, 229.057 293.455, 170.497 352.250" stroke="none" fill="#ffb24a" fill-rule="evenodd"/><path d="M 55.516 390.588 C 54.611 392.740, 49.098 406.121, 43.264 420.324 L 32.658 446.148 45.758 459.248 L 58.858 472.348 84.464 457.021 C 98.548 448.591, 110.255 441.397, 110.479 441.034 C 110.704 440.671, 98.799 428.292, 84.025 413.525 L 57.162 386.676 55.516 390.588" stroke="none" fill="#fff0be" fill-rule="evenodd"/><path d="M 358.245 80.254 L 348.011 90.524 377.005 119.505 L 406 148.487 416.246 138.242 L 426.492 127.996 397.486 98.990 L 368.480 69.984 358.245 80.254" stroke="none" fill="#ffffff" fill-rule="evenodd"/><path d="M 425 16.539 C 421.209 17.718, 417.270 21.175, 400.008 38.470 L 379.516 59.003 408.500 88 L 437.484 116.997 457.181 97.319 C 478.649 75.872, 481.889 71.411, 482.704 62.179 L 483.206 56.500 463.800 37.347 C 446.105 19.883, 443.921 18.054, 439.016 16.597 C 432.629 14.701, 430.933 14.694, 425 16.539" stroke="none" fill="#ff5178" fill-rule="evenodd"/><path d="M 357.481 80.250 L 347.500 90.500 357.750 80.519 C 363.387 75.029, 368 70.417, 368 70.269 C 368 69.545, 366.752 70.730, 357.481 80.250 M 384 127.500 C 404.069 147.575, 420.715 164, 420.990 164 C 421.265 164, 405.069 147.575, 385 127.500 C 364.931 107.425, 348.285 91, 348.010 91 C 347.735 91, 363.931 107.425, 384 127.500 M 201.004 237.496 L 65.513 372.989 80.995 388.495 L 96.477 404.002 160.007 340.501 C 220.229 280.306, 223.722 277, 227.094 277 C 231.716 277, 235 280.342, 235 285.046 C 235 288.233, 230.718 292.748, 171.493 351.999 L 107.987 415.534 115.755 423.257 L 123.523 430.979 259.007 295.493 L 394.491 160.007 386.747 152.263 L 379.003 144.519 315.733 207.759 C 254.653 268.812, 252.334 271, 248.732 271 C 243.791 271, 241 268.209, 241 263.268 C 241 259.666, 243.188 257.347, 304.243 196.265 L 367.485 132.993 351.990 117.498 L 336.495 102.003 201.004 237.496 M 431.481 154.250 L 421.500 164.500 431.750 154.519 C 441.270 145.248, 442.455 144, 441.731 144 C 441.583 144, 436.971 148.613, 431.481 154.250 M 84.692 456.760 L 58.884 472.350 62.376 475.843 L 65.869 479.335 91.684 468.733 C 105.883 462.901, 119.254 457.392, 121.398 456.489 L 125.297 454.849 118.425 447.925 C 114.646 444.116, 111.317 441.038, 111.027 441.085 C 110.737 441.132, 98.886 448.186, 84.692 456.760" stroke="none" fill="#f9d159" fill-rule="evenodd"/><path d="M 419.142 1.942 C 416.196 3.034, 412.357 5.016, 410.612 6.347 C 408.867 7.678, 326.453 89.798, 227.470 188.836 L 47.500 368.906 23.803 426.203 C 2.480 477.759, 0.100 484.077, 0.053 489.261 C -0.069 502.588, 9.280 512, 22.641 512 C 27.394 512, 34.935 509.171, 85.769 488.318 L 143.500 464.636 324.625 283.568 C 530.213 78.045, 511.500 98.430, 511.500 80 C 511.500 63.554, 510.999 62.786, 480.106 31.894 C 450.039 1.826, 448.493 0.776, 433.556 0.267 C 426.430 0.024, 423.358 0.381, 419.142 1.942 M 422.500 16.985 C 420.207 18.123, 410.074 27.406, 398.752 38.742 L 379.004 58.514 416.281 95.781 L 453.557 133.047 474.093 112.274 C 495.648 90.469, 497.009 88.545, 496.994 79.884 C 496.980 71.017, 496.075 69.795, 470.146 43.633 C 454.255 27.599, 444.079 18.104, 441.500 16.905 C 436.110 14.397, 427.646 14.433, 422.500 16.985 M 357.745 79.755 L 347.011 90.521 384.267 127.767 L 421.522 165.012 432.255 154.245 L 442.989 143.479 405.733 106.233 L 368.478 68.988 357.745 79.755 M 200.504 236.996 L 64.513 372.990 80.495 388.995 L 96.478 405.001 160.007 341.501 C 220.358 281.177, 223.716 278, 227.113 278 C 231.566 278, 234 280.495, 234 285.060 C 234 288.228, 229.614 292.851, 170.499 351.993 L 106.999 415.522 123.005 431.505 L 139.010 447.487 275.004 311.496 L 410.998 175.505 394.998 159.506 L 378.999 143.507 316.250 206.149 C 281.737 240.603, 252.447 269.327, 251.159 269.980 C 245.894 272.652, 239.348 266.106, 242.020 260.841 C 242.673 259.553, 271.397 230.263, 305.851 195.750 L 368.493 133.001 352.494 117.002 L 336.495 101.002 200.504 236.996 M 44.172 416.191 L 31.844 446.337 48.775 463.268 L 65.706 480.199 95.603 467.937 C 112.046 461.193, 125.705 455.505, 125.956 455.298 C 126.443 454.896, 57.855 385.985, 57.005 386.023 C 56.727 386.035, 50.952 399.611, 44.172 416.191 M 25.149 463.750 C 22.754 468.297, 15 488.305, 15 489.937 C 15 490.950, 15.840 492.816, 16.867 494.084 L 18.733 496.389 31.939 488.536 L 45.145 480.684 35.842 471.342 C 30.726 466.204, 26.434 462, 26.305 462 C 26.176 462, 25.656 462.788, 25.149 463.750" stroke="none" fill="#060505" fill-rule="evenodd"/></svg>