<svg xmlns="http://www.w3.org/2000/svg" width="512" height="512" viewBox="0 0 512 512" version="1.1"><path d="M 277 129.840 L 277 174.846 274.021 177.825 C 271.188 180.658, 270.512 180.835, 260.271 181.425 C 233.900 182.945, 217.135 185.910, 196.808 192.650 C 136.481 212.654, 85.911 259.331, 52.627 325.730 C 44.541 341.860, 35.060 367.093, 30.920 383.500 C 29.810 387.900, 28.650 392.346, 28.342 393.379 C 28.035 394.413, 31.082 391.488, 35.113 386.879 C 66.180 351.366, 109.603 317.743, 151.564 296.710 C 188.361 278.265, 229.671 267.019, 260.673 267.005 C 270.702 267, 270.890 267.044, 273.923 270.077 L 277 273.154 277 318.160 C 277 353.718, 277.262 363.080, 278.250 362.755 C 279.997 362.179, 481.905 224.614, 481.905 224 C 481.905 223.386, 279.997 85.821, 278.250 85.245 C 277.262 84.920, 277 94.282, 277 129.840" stroke="none" fill="#2393f3" fill-rule="evenodd"/><path d="M 259.400 56.400 L 256 59.800 256 109.735 L 256 159.670 243.364 160.896 C 212.209 163.916, 186.629 171.110, 159.418 184.503 C 109.030 209.303, 64.772 254.691, 36.071 311 C 14.678 352.972, 2.203 397.302, 0.332 438.002 L -0.289 451.504 2.416 454.718 C 5.801 458.741, 10.870 459.909, 15.454 457.723 C 18.802 456.127, 22 450.904, 22 447.034 C 22 437.824, 38.890 413.383, 60.978 390.631 C 107.225 342.990, 165.778 307.462, 219.501 294.444 C 229.440 292.036, 247.991 289.053, 253.250 289.018 L 256 289 256 338.423 L 256 387.847 258.497 390.814 C 261.319 394.167, 264.905 395.399, 269.137 394.470 C 272.716 393.684, 504.272 236.133, 508.750 231.437 C 511.315 228.748, 512 227.180, 512 224 C 512 220.819, 511.316 219.254, 508.750 216.567 C 506.162 213.856, 306.289 76.873, 277.122 57.820 C 267.850 51.763, 264.320 51.480, 259.400 56.400 M 277 129.840 L 277 174.846 274.021 177.825 C 271.188 180.658, 270.512 180.835, 260.271 181.425 C 233.900 182.945, 217.135 185.910, 196.808 192.650 C 136.481 212.654, 85.911 259.331, 52.627 325.730 C 44.541 341.860, 35.060 367.093, 30.920 383.500 C 29.810 387.900, 28.650 392.346, 28.342 393.379 C 28.035 394.413, 31.082 391.488, 35.113 386.879 C 66.180 351.366, 109.603 317.743, 151.564 296.710 C 188.361 278.265, 229.671 267.019, 260.673 267.005 C 270.702 267, 270.890 267.044, 273.923 270.077 L 277 273.154 277 318.160 C 277 353.718, 277.262 363.080, 278.250 362.755 C 279.997 362.179, 481.905 224.614, 481.905 224 C 481.905 223.386, 279.997 85.821, 278.250 85.245 C 277.262 84.920, 277 94.282, 277 129.840" stroke="none" fill="#040506" fill-rule="evenodd"/></svg>