<svg xmlns="http://www.w3.org/2000/svg" width="512" height="512" viewBox="0 0 512 512" version="1.1"><path d="M 131.770 154.250 C 75.841 192.338, 30.081 223.725, 30.081 224 C 30.080 224.612, 231.997 362.170, 233.750 362.752 C 234.738 363.080, 235 353.720, 235 318.160 L 235 273.154 238.077 270.077 C 241.110 267.044, 241.298 267, 251.327 267.005 C 282.329 267.019, 323.639 278.265, 360.436 296.710 C 402.397 317.743, 445.820 351.366, 476.887 386.879 C 480.918 391.488, 483.965 394.413, 483.658 393.379 C 483.350 392.346, 482.190 387.900, 481.080 383.500 C 476.940 367.093, 467.459 341.860, 459.373 325.730 C 431.086 269.299, 390.627 227.251, 341.692 203.426 C 314.370 190.124, 287.111 183.394, 252.727 181.461 C 241.393 180.824, 240.843 180.689, 237.977 177.823 L 235 174.846 235 129.923 C 235 105.215, 234.653 85, 234.230 85 C 233.806 85, 187.700 116.162, 131.770 154.250" stroke="none" fill="#2393f2" fill-rule="evenodd"/><path d="M 234.878 57.827 C 204.740 77.546, 5.825 213.863, 3.250 216.563 C -1.305 221.339, -1.305 226.661, 3.250 231.437 C 5.939 234.257, 222.566 382.596, 238.064 392.231 C 242.111 394.746, 243.516 395.126, 246.624 394.543 C 248.840 394.127, 251.485 392.621, 253.171 390.817 L 256 387.788 256 338.256 L 256 288.724 262.750 289.387 C 310.372 294.066, 362.365 316.933, 410.500 354.370 C 431.847 370.973, 455.495 393.685, 468.943 410.500 C 480.734 425.243, 490 441.320, 490 447.034 C 490 450.904, 493.198 456.127, 496.546 457.723 C 501.130 459.909, 506.199 458.741, 509.584 454.718 L 512.289 451.504 511.668 438.002 C 507.916 356.388, 462.423 265.658, 400 215.295 C 359.944 182.979, 318.230 165.704, 268.636 160.896 L 256 159.670 256 109.735 L 256 59.800 252.600 56.400 C 247.678 51.478, 244.149 51.762, 234.878 57.827 M 131.770 154.250 C 75.841 192.338, 30.081 223.725, 30.081 224 C 30.080 224.612, 231.997 362.170, 233.750 362.752 C 234.738 363.080, 235 353.720, 235 318.160 L 235 273.154 238.077 270.077 C 241.110 267.044, 241.298 267, 251.327 267.005 C 282.329 267.019, 323.639 278.265, 360.436 296.710 C 402.397 317.743, 445.820 351.366, 476.887 386.879 C 480.918 391.488, 483.965 394.413, 483.658 393.379 C 483.350 392.346, 482.190 387.900, 481.080 383.500 C 476.940 367.093, 467.459 341.860, 459.373 325.730 C 431.086 269.299, 390.627 227.251, 341.692 203.426 C 314.370 190.124, 287.111 183.394, 252.727 181.461 C 241.393 180.824, 240.843 180.689, 237.977 177.823 L 235 174.846 235 129.923 C 235 105.215, 234.653 85, 234.230 85 C 233.806 85, 187.700 116.162, 131.770 154.250" stroke="none" fill="#040506" fill-rule="evenodd"/></svg>